<?xml version="1.0" standalone="no"?>
<!DOCTYPE svg PUBLIC "-//W3C//DTD SVG 20010904//EN"
 "http://www.w3.org/TR/2001/REC-SVG-20010904/DTD/svg10.dtd">
<svg version="1.0" xmlns="http://www.w3.org/2000/svg"
 width="512.000000pt" height="512.000000pt" viewBox="0 0 512.000000 512.000000"
 preserveAspectRatio="xMidYMid meet">
<metadata>
Created by potrace 1.11, written by Peter Selinger 2001-2013
</metadata>
<g transform="translate(0.000000,512.000000) scale(0.100000,-0.100000)"
fill="#000000" stroke="none">
<path d="M2614 4551 c-9 -9 -3 -32 6 -26 6 4 8 9 6 13 -2 4 7 8 20 8 13 1 22
-2 19 -6 -3 -5 6 -7 20 -4 14 2 25 0 25 -6 0 -6 5 -8 11 -4 8 4 7 9 -2 15 -8
5 -9 9 -3 9 5 0 15 -5 22 -12 9 -9 15 -9 24 0 17 17 24 15 25 -8 1 -11 -3 -20
-8 -20 -6 0 -7 5 -4 10 3 6 1 10 -4 10 -6 0 -11 -5 -11 -11 0 -8 -5 -8 -15 1
-10 9 -15 9 -15 1 0 -12 -27 -10 -47 2 -8 5 -13 4 -13 -2 0 -6 -5 -11 -11 -11
-5 0 -7 5 -4 10 3 6 -1 10 -10 10 -9 0 -14 -4 -11 -8 2 -4 -12 -9 -32 -10 -20
-2 -38 -4 -40 -6 -2 -2 -4 -25 -5 -50 -1 -37 -4 -45 -17 -41 -11 4 -10 1 3 -9
9 -7 17 -21 17 -31 0 -10 8 -28 18 -39 12 -15 13 -17 1 -8 -13 9 -16 9 -16 -3
0 -9 10 -15 24 -15 19 0 23 -5 23 -30 0 -25 4 -30 24 -30 18 0 24 -6 25 -25 1
-14 3 -36 4 -49 2 -18 7 -23 25 -21 12 1 23 -3 23 -9 1 -6 2 -15 4 -21 1 -5 3
-15 3 -22 1 -6 11 -10 23 -8 15 3 19 0 15 -10 -3 -8 -1 -15 5 -15 6 0 8 -4 4
-9 -3 -5 -1 -13 5 -16 8 -5 8 -11 0 -20 -7 -9 -6 -16 4 -24 11 -9 15 -8 19 3
4 10 1 13 -9 9 -21 -8 -17 5 5 17 17 9 19 7 16 -10 -2 -11 2 -26 10 -33 9 -9
10 -19 3 -31 -8 -14 -6 -17 9 -15 21 4 43 -8 43 -22 0 -6 -6 -7 -12 -4 -7 4
-3 -2 10 -13 15 -14 18 -22 10 -25 -7 -2 -10 -7 -7 -11 10 -11 39 5 32 18 -3
6 -2 7 2 3 14 -13 15 -39 1 -34 -7 3 -19 1 -27 -5 -11 -8 -11 -9 3 -4 22 6 49
-19 42 -39 -4 -9 0 -15 10 -15 9 0 16 -6 16 -12 0 -9 4 -8 10 2 7 11 10 5 11
-25 1 -22 1 -46 0 -53 -2 -10 2 -10 18 0 19 12 20 13 3 20 -15 7 -15 8 2 5 11
-1 20 -11 23 -24 1 -13 5 -33 7 -45 2 -16 10 -23 25 -22 16 0 21 -5 21 -26 0
-14 6 -32 13 -39 7 -9 8 -12 0 -7 -7 4 -10 0 -8 -11 2 -10 4 -23 4 -29 1 -7 8
-14 16 -18 13 -5 13 -2 -1 19 -18 28 -11 33 12 10 8 -8 15 -34 16 -60 0 -40 3
-45 24 -45 19 0 24 -6 25 -27 1 -16 2 -32 4 -38 1 -5 3 -18 3 -29 2 -15 5 -16
16 -7 17 14 25 4 28 -33 2 -17 7 -25 15 -22 7 3 15 1 18 -5 4 -5 9 -7 13 -5 4
2 7 -16 7 -40 0 -24 4 -44 8 -44 5 0 3 -8 -4 -17 -8 -9 -9 -14 -3 -10 7 4 15
0 18 -9 3 -8 2 -12 -4 -9 -6 3 -10 1 -10 -5 0 -7 -12 -10 -27 -8 -19 2 -27 -1
-25 -11 1 -7 -3 -19 -9 -27 -9 -12 -15 -12 -27 -2 -13 10 -14 10 -8 1 5 -9 -1
-13 -21 -14 -15 -1 -32 -1 -36 0 -5 1 -6 -3 -2 -9 4 -6 16 -8 28 -5 12 2 16 2
9 -1 -6 -3 -10 -10 -7 -14 3 -5 0 -12 -6 -16 -8 -4 -9 -3 -5 4 10 17 -3 15
-20 -2 -7 -8 -23 -12 -34 -9 -16 4 -20 0 -20 -21 0 -29 -9 -33 -29 -13 -9 7
-11 7 -8 1 4 -7 0 -15 -9 -18 -9 -3 -12 -11 -8 -18 5 -8 2 -9 -9 -5 -10 3 -17
2 -17 -3 0 -5 8 -11 18 -14 9 -3 5 -4 -10 -2 -16 2 -28 0 -28 -3 0 -3 -10 -12
-21 -20 -20 -12 -21 -11 -15 5 4 10 3 15 -1 10 -4 -4 -8 -18 -8 -29 0 -16 -5
-21 -19 -19 -10 2 -15 -1 -11 -7 3 -7 0 -8 -9 -5 -12 5 -16 -1 -16 -21 0 -21
-4 -26 -18 -23 -10 3 -23 -1 -30 -9 -7 -7 -9 -13 -3 -13 5 0 7 -9 4 -19 -4
-16 -9 -18 -30 -10 -16 6 -22 6 -18 -1 3 -6 1 -10 -6 -10 -9 0 -9 -3 0 -14 10
-12 8 -16 -11 -22 -13 -4 -27 -8 -32 -9 -9 0 -15 -19 -19 -61 -1 -14 -7 -20
-16 -16 -10 4 -12 1 -6 -8 5 -9 4 -11 -3 -6 -15 9 -15 12 3 30 14 13 13 15 -3
13 -11 0 -19 -6 -19 -12 0 -35 -4 -44 -22 -40 -11 2 -22 -3 -25 -11 -4 -11 -2
-12 14 -4 13 7 21 7 25 -1 9 -13 -2 -24 -23 -24 -11 0 -18 -10 -20 -27 -3 -22
-9 -28 -28 -28 -20 0 -24 -5 -24 -31 0 -26 -3 -29 -20 -24 -24 8 -29 -5 -40
-105 0 -3 -5 2 -10 10 -12 19 -32 1 -34 -32 -1 -17 -7 -23 -23 -22 -22 1 -28
-10 -24 -44 1 -8 -3 -20 -10 -28 -9 -11 -9 -14 0 -14 7 0 10 -4 6 -9 -3 -6
-14 -8 -24 -6 -21 4 -29 -8 -26 -42 1 -18 -3 -22 -20 -19 -14 3 -22 -1 -22
-10 0 -8 4 -14 9 -14 4 0 8 5 8 12 0 16 13 1 16 -18 2 -10 -3 -13 -17 -9 -13
4 -19 2 -19 -9 0 -9 1 -18 3 -19 6 -9 -26 -36 -36 -30 -6 3 -7 1 -3 -6 4 -6
12 -9 17 -6 10 7 13 -28 3 -38 -4 -3 -14 -2 -24 3 -14 8 -17 3 -19 -28 -2 -35
-8 -93 -10 -101 -1 -2 -8 2 -16 9 -9 7 -18 10 -22 6 -4 -3 2 -13 13 -22 16
-13 17 -15 2 -10 -15 4 -18 -1 -19 -32 -2 -74 -4 -85 -19 -90 -12 -4 -13 -2
-2 9 15 16 16 29 1 29 -5 0 -8 -4 -5 -9 3 -5 -1 -11 -9 -15 -20 -7 -19 -24 3
-29 16 -4 16 -5 0 -6 -15 -1 -18 -12 -19 -68 -1 -38 -1 -76 0 -85 1 -10 -3
-18 -8 -18 -13 0 -10 -22 4 -32 6 -5 5 -8 -4 -8 -11 0 -11 -3 0 -17 13 -17 13
-17 -7 0 -21 18 -29 51 -10 40 6 -3 8 -3 4 2 -4 4 -3 14 2 20 6 7 7 20 4 29
-5 13 -9 14 -20 5 -10 -8 -11 -15 -4 -24 7 -9 8 -15 1 -19 -6 -4 -10 -19 -9
-34 0 -15 0 -106 -1 -202 -1 -96 0 -184 3 -195 2 -11 5 -24 5 -30 1 -7 4 -7 9
0 10 13 32 17 32 6 0 -9 49 -5 59 5 2 2 11 -2 19 -9 13 -9 14 -9 8 1 -4 6 -3
12 3 12 5 0 13 -5 16 -10 5 -8 11 -7 21 1 11 9 14 8 14 -2 0 -9 3 -10 8 -4 8
12 22 13 39 2 6 -4 13 -1 16 5 3 10 7 10 17 1 10 -9 18 -9 33 -1 14 7 22 7 26
-1 5 -7 17 -8 37 -2 16 4 37 7 47 5 9 -1 17 2 17 8 0 6 -6 8 -14 5 -8 -3 -17
1 -20 9 -3 9 -1 12 4 9 6 -3 10 -1 10 6 0 10 3 10 12 1 13 -13 32 -16 24 -4
-6 10 76 8 92 -2 7 -4 12 -3 12 1 0 5 54 8 120 8 66 0 120 4 120 9 0 5 7 3 15
-4 12 -10 14 -8 10 9 -2 12 -6 25 -9 29 -2 4 4 8 14 8 10 0 16 -5 13 -11 -3
-5 0 -4 8 2 17 17 32 17 23 1 -6 -10 -4 -10 7 -2 8 6 34 12 59 13 95 5 103 6
108 19 2 6 -5 12 -15 12 -17 1 -17 1 1 11 14 9 20 8 27 -2 5 -8 9 -9 9 -3 0 9
23 12 127 17 6 0 9 7 6 15 -4 10 -8 10 -13 2 -5 -8 -9 -6 -14 6 -4 10 -4 15 0
11 4 -4 13 -2 21 5 11 8 17 8 26 -2 9 -10 9 -11 0 -6 -9 5 -11 2 -6 -9 4 -13
8 -14 14 -4 4 7 5 17 3 21 -5 7 18 10 83 11 12 0 22 3 21 6 -3 30 4 41 30 41
15 0 34 6 41 12 11 10 13 10 7 1 -4 -8 -1 -13 8 -13 18 0 21 16 6 25 -13 8 -3
25 13 25 7 0 6 -4 -3 -10 -8 -5 -10 -10 -5 -10 6 0 15 4 21 10 8 8 39 15 86
19 10 1 -2 31 -13 31 -4 0 -7 -6 -5 -12 1 -7 1 -9 -2 -5 -2 4 -11 2 -20 -5
-13 -10 -13 -8 1 9 21 24 64 36 71 19 3 -7 5 -6 5 2 1 7 6 10 11 7 6 -3 10 5
10 18 0 21 7 26 38 33 20 4 43 6 50 5 9 -1 11 6 6 26 -4 15 -3 25 1 21 5 -4
15 -3 22 4 11 9 17 9 24 -3 7 -11 9 -11 9 4 0 9 -4 17 -10 17 -5 0 -2 9 8 20
9 11 18 16 20 11 6 -19 32 1 32 25 0 16 6 24 18 24 24 0 42 19 35 36 -4 10 3
14 21 14 21 0 26 5 26 25 0 18 7 26 25 31 14 3 26 10 26 15 1 5 3 14 4 19 1 6
3 21 4 34 1 15 9 26 21 29 14 3 18 1 13 -6 -11 -18 -12 -38 -2 -31 5 3 7 9 4
14 -3 5 -1 11 3 14 5 3 10 18 10 33 3 52 9 68 26 69 13 2 13 1 1 -3 -8 -2 -13
-9 -9 -14 11 -19 34 13 34 47 0 36 8 42 29 22 11 -10 13 -10 7 0 -4 6 -2 12 3
12 6 0 10 3 10 8 -1 4 -1 22 0 40 1 24 5 31 14 26 7 -5 6 -1 -3 10 -13 16 -12
18 10 14 24 -3 25 0 28 50 2 28 7 53 13 53 5 1 15 2 22 3 11 1 13 14 19 129 2
35 21 52 30 25 3 -9 6 -9 12 0 4 7 2 12 -5 12 -8 0 -7 5 2 17 10 11 10 14 2 9
-7 -4 -13 -3 -13 3 0 5 6 11 12 13 8 3 12 19 10 42 -2 21 2 44 10 53 7 9 8 14
2 10 -6 -3 -11 1 -11 9 0 9 6 13 16 9 14 -4 14 -4 0 7 -18 15 -18 60 0 66 9 3
9 8 -1 20 -10 14 -10 15 2 5 16 -14 22 -43 10 -43 -4 0 -11 -8 -14 -17 -4 -10
-4 -14 0 -10 4 4 13 2 19 -3 10 -8 12 -3 10 19 -1 16 1 35 5 42 5 7 4 23 -1
36 -6 16 -5 23 3 23 9 0 9 3 0 12 -6 6 -8 18 -3 27 4 9 7 53 7 98 -1 46 3 79
8 75 5 -3 5 1 0 9 -15 24 -12 35 7 35 12 0 18 -5 15 -13 -3 -7 -1 -13 4 -13
13 0 9 58 -5 64 -6 2 -12 -2 -12 -10 0 -7 5 -10 10 -7 6 4 7 1 2 -6 -5 -9 -10
-10 -18 -2 -16 16 -16 50 0 44 7 -3 13 -1 13 5 0 6 -5 12 -11 14 -9 3 -9 9 -1
25 9 16 9 22 -1 26 -9 3 -8 8 3 22 13 17 13 18 0 13 -11 -4 -16 0 -16 12 0 10
7 17 16 15 8 -1 14 -8 12 -14 -1 -6 2 -11 7 -11 6 0 11 50 13 110 3 95 1 110
-12 105 -9 -3 -6 2 5 11 11 9 15 18 9 20 -7 3 -8 20 -4 49 4 25 3 42 -2 39 -5
-3 -16 0 -25 8 -15 11 -16 11 -9 -7 4 -11 3 -16 -1 -11 -9 9 -12 55 -3 54 18
-2 23 3 11 11 -10 7 -11 13 -1 31 10 19 10 22 -1 18 -10 -4 -14 3 -14 22 0 19
4 26 14 22 10 -4 9 3 -4 28 -9 18 -12 29 -6 26 6 -4 19 -2 28 4 16 10 16 11 1
6 -9 -2 -22 2 -28 10 -9 10 -9 14 -1 14 6 0 11 5 11 11 0 5 -4 8 -8 5 -4 -2
-8 4 -8 14 0 10 3 18 6 18 18 -1 23 3 11 11 -10 7 -11 13 -1 31 10 19 10 22
-1 18 -10 -4 -14 3 -14 22 0 17 5 26 12 23 13 -5 12 29 -1 38 -5 4 -10 55 -12
114 -2 86 -6 111 -20 124 -15 15 -16 15 -11 -1 3 -10 1 -20 -5 -24 -6 -4 -8
-3 -4 4 3 6 2 13 -4 17 -7 4 -6 13 1 27 8 15 8 19 0 14 -7 -5 -11 3 -11 21 0
34 -16 54 -38 46 -10 -4 -13 -1 -10 8 9 24 -11 51 -33 44 -21 -7 -27 10 -6 18
10 4 10 6 0 6 -7 1 -13 7 -13 15 0 8 -5 18 -12 22 -7 5 -9 2 -4 -7 4 -8 1 -6
-7 4 -12 14 -16 15 -20 5 -2 -8 -3 -8 -3 2 1 10 11 14 26 13 22 -2 23 -1 7 8
-9 5 -22 7 -27 4 -6 -3 -10 2 -10 12 0 10 -3 14 -8 8 -13 -19 -35 -10 -39 15
-4 26 -23 53 -23 33 0 -6 -8 -9 -18 -6 -20 5 -26 33 -8 33 6 0 3 5 -7 11 -9 5
-22 7 -28 4 -17 -11 -39 27 -26 45 9 12 9 13 -3 3 -9 -9 -19 -9 -33 -2 -15 9
-18 8 -12 -3 6 -10 5 -10 -5 -1 -7 6 -18 9 -25 6 -8 -2 -19 7 -27 20 -12 23
-14 24 -28 9 -13 -14 -12 -15 3 -9 9 3 17 2 17 -3 0 -6 -9 -10 -20 -10 -11 0
-20 5 -20 11 0 8 -4 8 -14 -1 -11 -8 -20 -9 -33 -1 -17 10 -17 10 0 12 9 1 22
3 27 4 6 1 17 3 27 4 9 0 13 4 9 8 -3 4 -65 7 -137 8 -95 0 -133 -3 -141 -12
-8 -10 -14 -10 -24 -2 -10 8 -151 12 -500 13 -267 0 -488 -1 -490 -3z m242
-16 c-1 -8 -6 -18 -11 -22 -4 -4 -5 -2 -1 5 4 6 3 12 -3 12 -5 0 -11 -6 -14
-12 -3 -10 -10 -8 -23 5 -11 10 -13 17 -6 17 7 0 12 -5 12 -11 0 -5 10 -3 22
5 27 19 27 19 24 1z m59 5 c4 -7 13 -6 26 1 15 7 24 7 35 -2 10 -8 17 -9 28 0
14 12 46 5 46 -10 0 -5 11 -2 24 6 22 14 24 15 22 1 -1 -9 -6 -19 -11 -23 -4
-4 -5 -2 -1 5 4 6 3 12 -3 12 -5 0 -11 -6 -14 -12 -3 -9 -10 -7 -26 6 -18 17
-21 17 -15 3 3 -10 1 -17 -6 -17 -6 0 -8 5 -5 10 3 6 1 10 -4 10 -6 0 -11 -5
-11 -11 0 -8 -5 -8 -15 1 -10 9 -15 9 -15 1 0 -12 -27 -10 -47 2 -8 5 -13 4
-13 -2 0 -6 -5 -11 -11 -11 -5 0 -7 5 -4 10 3 6 2 10 -4 10 -5 0 -12 -6 -14
-12 -4 -8 -6 -7 -6 4 -1 23 32 37 44 18z m240 0 c4 -7 13 -6 26 1 15 7 24 7
35 -2 10 -8 17 -9 28 0 14 12 46 5 46 -10 0 -5 11 -2 24 6 22 14 24 15 22 1
-1 -9 -6 -19 -11 -23 -4 -4 -5 -2 -1 5 4 6 3 12 -3 12 -5 0 -11 -6 -14 -12 -3
-9 -10 -7 -26 6 -18 17 -21 17 -15 3 3 -10 1 -17 -6 -17 -6 0 -8 5 -5 10 3 6
1 10 -4 10 -6 0 -11 -5 -11 -11 0 -8 -5 -8 -15 1 -10 9 -15 9 -15 1 0 -12 -27
-10 -47 2 -8 5 -13 4 -13 -2 0 -6 -5 -11 -11 -11 -5 0 -7 5 -4 10 3 6 2 10 -4
10 -5 0 -12 -6 -14 -12 -4 -8 -6 -7 -6 4 -1 23 32 37 44 18z m240 0 c4 -7 13
-6 26 1 15 7 24 7 35 -2 11 -9 17 -9 29 1 10 8 19 9 28 2 6 -5 22 -8 35 -6 14
3 22 -1 22 -11 0 -15 -24 -16 -47 -2 -8 5 -13 4 -13 -2 0 -6 -5 -11 -11 -11
-5 0 -7 5 -4 10 3 6 1 10 -4 10 -6 0 -11 -5 -11 -11 0 -8 -5 -8 -15 1 -10 9
-15 9 -15 1 0 -12 -27 -10 -47 2 -8 5 -13 4 -13 -2 0 -6 -5 -11 -11 -11 -5 0
-7 5 -4 10 3 6 2 10 -4 10 -5 0 -12 -6 -14 -12 -4 -8 -6 -7 -6 4 -1 23 32 37
44 18z m393 -25 c-3 -3 -9 2 -12 12 -6 14 -5 15 5 6 7 -7 10 -15 7 -18z m240
-38 c8 -10 6 -13 -11 -14 -12 0 -16 1 -9 4 6 3 10 9 6 14 -8 14 2 11 14 -4z
m-1082 -150 c-6 -10 -12 -13 -15 -6 -2 8 -6 7 -12 -2 -7 -12 -9 -11 -9 1 0 13
-1 13 -10 0 -8 -13 -10 -13 -10 2 0 9 -5 18 -12 20 -6 2 9 4 34 4 41 -1 44 -3
34 -19z m71 10 c6 -4 13 -1 16 5 3 10 9 9 21 -3 15 -14 14 -15 -16 -14 -18 0
-40 5 -48 10 -13 8 -13 7 0 -11 14 -18 14 -18 -4 -4 -11 8 -17 10 -13 4 3 -6
0 -11 -7 -11 -11 0 -12 4 -3 18 11 18 31 20 54 6z m128 -7 c13 -14 13 -17 0
-17 -8 0 -12 3 -10 7 3 4 -7 6 -20 4 -14 -1 -23 2 -20 6 3 5 -3 10 -12 13 -10
2 -3 4 14 4 18 0 39 -8 48 -17z m30 -4 c-1 -12 -3 -34 -4 -49 0 -16 -6 -27
-13 -26 -34 4 -41 0 -27 -18 10 -11 10 -14 2 -9 -9 5 -13 0 -13 -14 0 -13 -4
-19 -11 -14 -8 5 -8 1 0 -14 14 -26 14 -45 1 -37 -6 4 -8 12 -4 18 3 7 -1 4
-9 -5 -8 -10 -17 -14 -21 -10 -5 4 -6 -8 -3 -25 3 -18 2 -35 -3 -38 -4 -3 -6
-13 -4 -23 4 -13 -1 -17 -19 -17 -17 0 -24 6 -25 24 -3 34 -11 39 -29 16 -12
-15 -14 -16 -10 -3 3 9 2 18 -4 20 -5 2 -10 22 -11 45 -1 41 -20 64 -34 41 -5
-7 -2 -8 6 -3 9 6 11 4 5 -5 -5 -8 -4 -11 2 -7 5 3 10 0 10 -7 0 -8 -7 -13
-16 -11 -14 2 -21 27 -22 78 0 11 -8 17 -24 17 -19 0 -24 6 -27 36 -2 19 0 38
5 41 6 3 7 1 3 -5 -8 -14 -10 -13 72 -16 34 -2 62 1 62 6 0 5 3 7 8 5 13 -9
140 -12 148 -5 4 4 2 14 -4 21 -9 10 -8 14 2 14 7 0 12 -9 11 -21z m459 15 c3
-4 0 -13 -6 -21 -8 -12 -9 -11 -4 3 4 12 2 17 -6 14 -7 -2 -11 -11 -10 -18 2
-8 0 -10 -4 -6 -15 15 -11 33 7 34 10 1 21 -2 23 -6z m150 -8 c3 -8 10 -12 15
-9 5 4 11 1 13 -6 4 -11 19 -14 101 -17 17 -1 27 -7 27 -16 0 -8 6 -15 13 -15
8 0 7 -4 -3 -10 -11 -7 -5 -10 23 -10 39 0 45 -8 25 -28 -7 -7 -10 -12 -8 -13
3 0 12 -2 20 -4 22 -5 64 -13 72 -14 3 -1 9 -20 13 -43 9 -54 14 -62 30 -48
16 13 21 5 23 -34 2 -37 8 -42 26 -27 11 9 15 8 20 -5 4 -10 2 -21 -5 -24 -6
-5 -7 -10 -2 -13 13 -8 15 -60 16 -329 1 -195 3 -226 15 -216 9 8 10 14 3 16
-7 2 -6 11 4 25 19 28 19 43 0 27 -10 -9 -15 -9 -15 -1 0 6 5 11 10 11 6 0 13
0 18 0 11 0 9 -34 -3 -42 -6 -5 -5 -11 5 -18 12 -8 12 -10 1 -10 -10 0 -11 -3
-2 -14 9 -10 7 -13 -6 -13 -123 0 -193 -4 -188 -13 3 -5 1 -10 -4 -10 -6 0
-11 4 -11 8 0 4 -9 8 -20 9 -11 1 -20 -3 -20 -9 0 -7 -4 -7 -13 0 -8 7 -17 6
-30 -3 -16 -12 -16 -13 -1 -19 9 -4 19 -4 22 -1 3 3 0 5 -7 5 -7 0 -9 5 -6 10
5 8 11 8 19 1 7 -6 17 -7 21 -3 5 4 5 1 1 -5 -4 -7 -2 -13 4 -13 7 0 10 7 6
18 -6 16 -5 16 7 0 8 -10 17 -16 20 -13 4 3 4 2 1 -2 -5 -7 -34 -9 -190 -12
-58 -1 -61 -2 -59 -24 3 -22 0 -24 -49 -23 -39 1 -55 -4 -69 -19 -10 -12 -16
-14 -15 -6 2 7 -3 16 -11 19 -10 3 -13 -2 -9 -19 5 -26 -2 -28 -102 -32 -42
-2 -45 0 -48 26 -3 23 -7 26 -28 23 -25 -5 -26 -2 -27 81 0 12 -3 22 -6 21
-29 -3 -41 4 -41 27 0 14 -5 25 -11 25 -8 0 -7 6 2 18 13 16 13 16 -7 0 -26
-23 -29 -22 -31 2 -1 13 2 18 9 14 6 -4 4 3 -5 15 -8 13 -13 29 -11 35 3 7 -7
18 -21 24 -25 12 -36 36 -12 26 8 -3 20 3 28 12 13 16 12 16 -8 6 -30 -17 -37
-3 -39 86 -1 40 -5 76 -9 80 -5 4 -5 1 -1 -5 8 -15 5 -16 -18 -7 -12 5 -16 21
-16 71 0 48 3 63 13 58 6 -4 4 0 -5 7 -15 13 -15 15 2 26 16 9 18 9 14 -2 -3
-8 1 -17 8 -22 7 -4 10 -4 6 1 -4 4 -3 17 3 28 8 14 8 18 0 13 -6 -4 -11 -3
-11 3 0 6 -6 9 -12 7 -7 -1 -10 -1 -5 1 4 3 4 10 1 16 -5 8 -2 8 7 0 19 -19
24 -16 27 13 1 17 -2 23 -11 18 -6 -4 -5 1 4 12 9 10 15 29 13 41 -3 16 0 21
11 17 8 -4 12 -11 8 -17 -3 -6 -1 -7 6 -3 6 4 9 12 6 17 -4 5 -1 9 4 9 6 0 11
11 11 24 0 14 5 28 10 31 6 3 10 11 10 16 0 6 -5 7 -12 3 -7 -4 -8 -3 -4 5 10
15 29 3 22 -15 -3 -8 1 -14 10 -14 10 0 14 6 10 15 -9 25 4 42 30 39 19 -2 24
2 24 22 0 20 5 24 33 26 51 2 55 3 64 12 4 5 3 6 -4 2 -8 -5 -13 -1 -13 10 0
16 -1 16 -14 -2 -15 -19 -15 -19 -12 1 2 14 12 20 32 22 52 5 119 11 127 12 4
1 6 4 6 9 -5 28 4 32 65 31 46 -1 66 -6 70 -16z m52 9 c9 -5 8 -10 -1 -19 -10
-10 -14 -9 -19 3 -3 8 -10 12 -16 9 -5 -3 -10 -1 -10 4 0 12 29 14 46 3z
m-626 -22 c0 -5 -4 -10 -10 -10 -5 0 -10 5 -10 10 0 6 5 10 10 10 6 0 10 -4
10 -10z m826 -107 c-3 -4 -6 -1 -6 7 0 10 -3 10 -17 -1 -15 -13 -15 -12 -2 8
11 19 15 20 22 7 5 -9 6 -18 3 -21z m-623 10 c-7 -2 -19 -2 -25 0 -7 3 -2 5
12 5 14 0 19 -2 13 -5z m-706 -40 c2 -6 -4 -14 -14 -17 -9 -4 -14 -4 -10 0 4
4 2 13 -4 20 -7 9 -6 12 7 10 10 -2 19 -7 21 -13z m1623 -3 c0 -5 -2 -10 -4
-10 -3 0 -8 5 -11 10 -3 6 -1 10 4 10 6 0 11 -4 11 -10z m-190 -54 c0 -2 -7
-7 -16 -10 -8 -3 -12 -2 -9 4 6 10 25 14 25 6z m243 -71 c-3 -9 -8 -14 -10
-11 -3 3 -2 9 2 15 9 16 15 13 8 -4z m-143 -189 c0 -3 -4 -8 -10 -11 -5 -3
-10 -1 -10 4 0 6 5 11 10 11 6 0 10 -2 10 -4z m0 -41 c-9 -11 -9 -15 -1 -15 7
0 9 -5 5 -11 -4 -8 -9 -7 -15 2 -7 11 -9 11 -9 1 0 -7 7 -15 15 -18 12 -5 13
-10 4 -20 -9 -11 -8 -14 2 -15 11 0 11 -2 1 -6 -10 -4 -10 -8 0 -21 7 -10 8
-14 4 -10 -5 4 -15 3 -22 -3 -14 -11 -14 6 -1 29 5 7 3 12 -5 13 -10 0 -10 2
0 6 6 2 12 9 12 14 0 6 -4 8 -8 5 -4 -2 -8 4 -9 14 -1 11 3 23 9 26 7 4 5 10
-3 16 -11 8 -10 9 4 4 9 -3 17 0 17 6 0 6 3 8 6 5 4 -4 1 -13 -6 -22z m-985
-65 c0 -7 -6 -15 -12 -17 -8 -3 -13 4 -13 17 0 13 5 20 13 18 6 -3 12 -11 12
-18z m5 -40 c0 -5 -2 -10 -4 -10 -3 0 -8 5 -11 10 -3 6 -1 10 4 10 6 0 11 -4
11 -10z m980 -55 c-9 -11 -9 -15 -1 -15 7 0 9 -5 5 -11 -4 -8 -9 -7 -15 2 -7
11 -9 11 -9 1 0 -7 7 -15 15 -18 12 -5 13 -10 4 -20 -9 -11 -8 -14 2 -15 11 0
11 -2 1 -6 -10 -4 -10 -8 0 -21 7 -10 8 -14 4 -10 -5 4 -15 3 -22 -3 -14 -11
-14 6 -1 29 5 7 3 12 -5 13 -10 0 -10 2 0 6 6 2 12 9 12 14 0 6 -4 8 -8 5 -4
-2 -8 4 -9 14 -1 11 3 23 9 26 6 4 5 10 -3 15 -12 8 -11 11 1 19 21 13 37 -5
20 -25z m-827 -260 c8 -18 -11 -31 -25 -17 -11 11 -3 32 12 32 4 0 10 -7 13
-15z m1012 -25 c3 -5 1 -10 -4 -10 -6 0 -11 5 -11 10 0 6 2 10 4 10 3 0 8 -4
11 -10z m-591 -18 c3 -5 -1 -9 -9 -9 -8 0 -15 4 -15 9 0 4 4 8 9 8 6 0 12 -4
15 -8z m592 -127 c-1 -8 -5 -17 -8 -21 -5 -4 -4 16 1 34 3 9 9 -1 7 -13z
m-238 -14 c6 -1 12 -5 12 -10 0 -4 -21 -7 -46 -6 -25 2 -43 1 -40 -3 4 -3 23
-7 44 -8 20 -1 40 -2 44 -3 4 -1 3 -14 -2 -30 -4 -16 -6 -32 -3 -35 3 -2 4
-53 3 -113 -1 -59 -3 -138 -3 -176 -1 -45 -5 -66 -13 -63 -6 2 -11 -2 -11 -9
0 -8 7 -11 16 -7 17 6 16 4 -13 -18 -11 -8 -17 -10 -14 -5 4 6 3 17 -1 23 -4
8 -8 -4 -9 -28 l-2 -41 23 27 c17 20 24 23 24 11 0 -9 -4 -14 -8 -12 -16 11
-38 -46 -40 -104 -1 -41 -6 -58 -13 -54 -6 4 -6 0 1 -8 10 -13 10 -19 -3 -35
-8 -10 -13 -13 -9 -7 4 9 1 11 -10 7 -9 -4 -14 -13 -10 -22 3 -8 -3 -24 -12
-35 -10 -11 -12 -17 -5 -13 13 8 15 -9 4 -35 -5 -12 -11 -13 -27 -5 -16 9 -20
21 -19 59 0 28 -4 47 -10 46 -6 -1 -20 -1 -31 0 -17 1 -18 3 -5 11 8 5 10 10
4 10 -7 0 -12 6 -11 13 1 42 -5 66 -19 71 -12 5 -15 2 -10 -11 5 -12 4 -15 -3
-8 -9 9 -23 69 -24 103 0 9 -9 12 -24 9 -19 -3 -23 0 -24 22 -1 14 -1 30 0 34
1 5 -9 7 -21 5 -23 -3 -27 7 -31 78 -1 17 -6 21 -24 18 -15 -3 -23 1 -24 11
-1 8 -2 21 -3 28 0 6 -11 13 -23 15 -20 3 -28 18 -24 45 0 4 -4 7 -10 7 -5 0
-8 4 -5 8 3 5 -1 9 -9 9 -8 0 -12 -4 -9 -9 3 -4 1 -8 -5 -8 -5 0 -11 12 -13
28 -2 16 -8 26 -16 24 -8 -1 -11 2 -7 8 3 6 10 8 14 6 4 -3 7 15 6 40 -1 25 2
47 7 50 4 3 8 1 8 -3 0 -5 9 -9 20 -9 11 0 20 3 20 7 0 3 24 6 54 5 44 -1 52
2 48 14 -3 8 -10 19 -16 23 -6 4 2 7 19 5 17 -1 35 0 40 3 6 3 28 5 50 4 22
-1 46 4 54 9 11 8 13 8 8 0 -5 -9 23 -12 43 -4 3 1 9 2 13 1 5 -1 6 3 2 9 -3
6 -11 8 -16 5 -5 -4 -9 0 -9 7 0 9 -3 9 -10 -2 -7 -11 -10 -11 -10 -2 0 7 -5
10 -12 6 -6 -4 -8 -3 -5 2 3 5 28 9 56 9 28 0 51 2 51 5 0 3 17 5 38 4 20 -1
43 -3 50 -3z m-870 -72 c-3 -8 -7 -3 -11 10 -4 17 -3 21 5 13 5 -5 8 -16 6
-23z m492 1 c0 -5 -5 -10 -11 -10 -5 0 -7 5 -4 10 3 6 8 10 11 10 2 0 4 -4 4
-10z m420 -10 c0 -5 -2 -10 -4 -10 -3 0 -8 5 -11 10 -3 6 -1 10 4 10 6 0 11
-4 11 -10z m-567 -41 c-8 -8 -13 -7 -18 2 -5 8 -4 10 3 5 7 -4 12 -2 12 5 0 7
3 9 7 6 4 -4 2 -12 -4 -18z m14 -28 c-1 -12 -6 -17 -16 -13 -8 3 -12 1 -8 -4
3 -6 1 -16 -4 -24 -7 -11 -8 -8 -5 12 2 15 -1 29 -7 32 -7 3 -2 3 11 0 12 -3
22 -1 22 5 0 6 2 11 4 11 3 0 4 -9 3 -19z m553 -51 c0 -5 -5 -10 -11 -10 -5 0
-7 5 -4 10 3 6 8 10 11 10 2 0 4 -4 4 -10z m-748 -82 c2 -58 3 -61 15 -65 6
-2 14 1 18 6 3 6 0 9 -7 8 -7 -2 -9 -2 -5 1 4 2 3 10 -3 17 -9 10 -7 13 7 11
10 -2 18 -11 18 -22 -1 -10 5 -23 12 -27 10 -6 10 -13 2 -29 -8 -15 -8 -19 0
-14 6 4 11 2 11 -4 0 -7 7 -10 15 -7 8 4 17 2 20 -3 4 -6 0 -10 -7 -11 -10 0
-10 -2 0 -6 6 -2 10 -9 6 -14 -3 -5 0 -9 6 -9 6 0 8 -5 4 -12 -6 -10 -5 -10 7
-1 9 8 20 9 29 3 12 -8 11 -10 -5 -11 -11 0 -14 -3 -7 -6 6 -2 12 -11 12 -19
0 -8 5 -14 10 -14 6 0 10 -5 10 -11 0 -5 -4 -8 -9 -5 -5 4 -8 -2 -6 -11 2 -10
4 -20 4 -22 1 -2 10 4 20 13 22 20 29 13 27 -32 -1 -28 2 -32 26 -32 21 0 26
-4 23 -20 -5 -23 9 -35 48 -39 7 -1 8 -4 2 -9 -13 -10 -17 -32 -6 -32 6 0 10
-8 10 -17 1 -55 5 -74 19 -85 10 -8 13 -9 9 -2 -4 7 -1 14 7 17 8 3 13 -2 13
-16 1 -57 3 -68 15 -61 7 5 8 3 2 -7 -16 -26 -12 -37 12 -34 22 2 24 -1 25
-49 1 -28 2 -63 2 -78 -1 -18 5 -28 18 -31 24 -6 24 10 2 37 -18 21 -18 21 5
2 12 -11 22 -28 22 -38 0 -10 -10 -23 -22 -29 -20 -8 -20 -9 -2 -6 18 4 20 -1
22 -54 1 -33 -3 -59 -8 -59 -5 0 -7 -7 -4 -15 4 -8 1 -15 -5 -15 -6 0 -10 3
-8 8 1 4 -2 9 -8 12 -5 3 -11 -8 -12 -25 -1 -16 -7 -31 -13 -33 -5 -2 -10 -8
-10 -13 0 -6 6 -7 13 -3 8 5 8 2 -2 -9 -14 -18 -36 -24 -26 -7 3 6 1 10 -4 10
-11 0 -13 -11 -14 -57 0 -14 -4 -20 -11 -16 -25 16 -36 10 -36 -18 0 -16 -3
-28 -7 -28 -36 6 -50 -2 -45 -26 4 -22 1 -25 -25 -25 -26 0 -30 -3 -28 -25 3
-21 -1 -25 -25 -25 -24 0 -28 -4 -25 -25 1 -14 -3 -25 -9 -24 -31 4 -44 -3
-50 -25 -3 -14 -14 -25 -24 -25 -67 -3 -72 -5 -72 -29 0 -19 -4 -23 -20 -19
-11 3 -23 1 -26 -4 -3 -5 -11 -9 -17 -8 -29 3 -37 -3 -37 -26 0 -22 -3 -24
-19 -15 -14 7 -22 7 -26 -1 -4 -6 -13 -8 -21 -5 -8 3 -14 0 -14 -7 0 -8 -3 -8
-9 2 -7 10 -13 7 -30 -16 -20 -26 -27 -29 -77 -28 -48 0 -54 -2 -50 -17 6 -26
-8 -31 -108 -35 -94 -4 -119 -13 -109 -41 6 -15 5 -15 -10 -3 -14 11 -17 11
-18 0 0 -12 -1 -12 -6 0 -4 9 -8 10 -12 3 -4 -7 -66 -12 -162 -14 -130 -2
-156 -5 -151 -17 3 -9 1 -12 -6 -7 -7 4 -15 0 -18 -9 -8 -19 -44 -16 -62 5
-11 13 -11 13 -7 -1 5 -13 -6 -16 -80 -17 -48 0 -84 2 -82 5 3 3 2 16 -3 29
-5 13 -6 25 -2 28 4 2 7 32 7 65 -1 40 3 65 12 72 7 7 13 16 13 22 0 6 -7 2
-16 -9 -15 -19 -16 -19 -8 1 4 11 7 35 7 53 -1 30 6 36 32 33 6 0 10 18 9 42
0 23 3 55 8 71 4 17 4 32 0 35 -5 4 0 14 11 24 18 18 19 18 13 0 -3 -10 -1
-25 5 -33 9 -13 10 -12 5 2 -3 10 -2 18 2 18 4 0 8 12 8 28 4 75 8 91 21 80
11 -8 12 -7 6 8 -6 16 -4 17 8 7 13 -10 16 -10 16 2 0 8 -4 12 -9 9 -4 -3 -8
0 -8 5 0 6 5 11 10 11 6 0 10 19 10 43 0 47 10 70 30 65 15 -3 27 34 25 75 -2
25 0 26 15 12 22 -20 36 -19 19 2 -10 11 -10 14 -1 9 8 -5 12 2 12 23 0 26 4
31 25 31 21 0 25 5 25 30 0 17 5 30 11 30 8 0 8 5 -1 15 -10 12 -9 16 5 21 10
4 21 1 25 -6 6 -9 10 0 12 26 2 26 8 39 18 40 40 3 41 3 30 24 -7 14 -7 20 0
21 11 2 25 5 38 9 4 1 11 2 16 1 5 -1 4 5 -4 13 -7 9 -19 16 -27 16 -8 0 -11
5 -8 10 5 8 11 7 21 -1 15 -12 19 -6 26 36 2 11 14 22 28 25 16 4 25 13 25 25
0 14 7 20 23 19 18 0 22 5 22 29 0 24 3 28 20 24 22 -6 41 18 33 41 -3 7 5 12
20 12 19 0 26 6 29 23 2 14 10 22 23 22 13 0 22 8 25 25 3 14 13 26 24 28 19
4 46 25 46 37 0 3 -5 3 -12 -1 -7 -4 -8 -3 -4 5 4 6 16 9 27 6 13 -4 19 -2 19
8 0 10 9 13 28 10 26 -3 26 -3 5 8 -25 13 -30 25 -10 27 51 4 72 11 78 28 3
10 4 23 2 27 -3 4 7 6 21 3 14 -3 28 0 32 5 3 6 13 8 23 5 9 -4 5 2 -9 13
l-24 19 34 7 c19 3 45 7 58 8 14 1 22 7 21 17 -3 28 1 30 51 30 49 0 50 0 52
-32z m-524 -52 c-7 -8 -15 -12 -17 -11 -5 6 10 25 20 25 5 0 4 -6 -3 -14z
m868 -51 c1 -8 -2 -15 -6 -15 -5 0 -8 9 -7 20 1 21 10 18 13 -5z m-911 5 c-3
-5 -12 -10 -18 -10 -7 0 -6 4 3 10 19 12 23 12 15 0z m-110 -100 c3 -5 1 -10
-4 -10 -6 0 -11 5 -11 10 0 6 2 10 4 10 3 0 8 -4 11 -10z m-40 -49 c3 -5 2
-12 -3 -15 -5 -3 -9 1 -9 9 0 17 3 19 12 6z m1161 -16 c1 -8 -4 -11 -12 -8
-15 6 -18 16 -7 26 8 9 16 1 19 -18z m274 11 c0 -3 -4 -8 -10 -11 -5 -3 -10
-1 -10 4 0 6 5 11 10 11 6 0 10 -2 10 -4z m-60 -207 c-5 -9 -6 -19 -2 -23 3
-4 -2 -4 -13 0 -12 5 -14 9 -7 12 9 3 10 8 3 16 -7 8 -5 12 9 12 14 0 16 -4
10 -17z m-304 -31 c4 -7 4 -10 -1 -6 -4 4 -14 0 -22 -10 -13 -15 -13 -15 -3 6
12 25 16 27 26 10z m483 -51 c8 -10 7 -14 -2 -14 -8 0 -14 6 -14 14 0 7 1 13
2 13 2 0 8 -6 14 -13z m-235 -26 c-2 -3 -12 3 -22 13 -16 17 -16 18 5 5 12 -7
20 -15 17 -18z m-1334 3 c0 -8 -19 -13 -24 -6 -3 5 1 9 9 9 8 0 15 -2 15 -3z
m1127 -49 c-15 -16 -19 -13 -11 9 3 9 10 13 15 10 5 -3 3 -11 -4 -19z m410
-94 c0 -9 -9 -18 -18 -18 -11 -1 -17 5 -16 16 0 9 9 18 18 18 11 1 17 -5 16
-16z m-65 -105 c7 4 8 2 4 -5 -9 -13 -26 -5 -25 12 0 9 2 8 6 -1 2 -6 10 -9
15 -6z m-1795 -241 c0 -8 -4 -15 -9 -15 -10 0 -11 14 -1 23 9 10 10 9 10 -8z
m1606 -108 c-2 -4 -6 -7 -9 -6 -4 0 -10 -5 -15 -13 -6 -9 -8 -6 -7 8 1 13 8
21 18 19 8 -1 14 -5 13 -8z m-1903 -217 c0 -5 -2 -10 -4 -10 -3 0 -8 5 -11 10
-3 6 -1 10 4 10 6 0 11 -4 11 -10z m1644 -46 c3 -7 -2 -11 -12 -10 -9 2 -17 7
-19 13 -5 14 25 12 31 -3z m-351 -9 c-3 -9 -8 -14 -10 -11 -3 3 -2 9 2 15 9
16 15 13 8 -4z m-147 -50 c-3 -20 -16 -31 -16 -13 0 13 8 28 16 28 1 0 1 -7 0
-15z m-309 -104 c-1 -19 -12 -21 -35 -8 -16 11 -9 22 17 24 13 1 19 -4 18 -16z
m444 -31 c9 13 10 13 6 0 -2 -8 -10 -15 -17 -15 -7 0 -15 7 -17 15 -4 13 -3
13 6 0 10 -13 12 -13 22 0z m-757 -16 c6 -14 -11 -30 -21 -20 -4 3 0 6 8 6 11
0 11 2 -1 10 -20 13 -31 12 -27 -2 1 -7 -13 -13 -35 -14 -21 -1 -38 3 -38 9 0
6 3 7 6 4 4 -3 15 -1 25 7 24 16 77 16 83 0z m96 2 c0 -3 -4 -8 -10 -11 -5 -3
-10 -1 -10 4 0 6 5 11 10 11 6 0 10 -2 10 -4z m354 -102 c3 -8 2 -12 -4 -9 -6
3 -10 10 -10 16 0 14 7 11 14 -7z m-200 -52 c2 -4 -7 -8 -22 -9 -16 0 -19 1
-9 4 18 5 18 5 0 19 -17 14 -16 14 4 4 12 -5 24 -14 27 -18z m-64 14 c0 -2 -8
-10 -17 -17 -16 -13 -17 -12 -4 4 13 16 21 21 21 13z m-703 -54 c-1 -21 -24
-26 -24 -6 0 7 4 11 9 8 4 -3 8 0 8 5 0 6 2 11 4 11 3 0 4 -8 3 -18z m74 3 c5
4 6 -1 3 -8 -7 -18 -37 -27 -54 -17 -17 10 -3 31 15 23 9 -3 15 1 16 8 0 11 2
11 6 1 2 -6 9 -10 14 -7z m72 2 c4 3 7 1 7 -6 0 -7 4 -10 9 -6 5 3 12 1 15 -4
4 -5 -2 -8 -11 -6 -10 1 -24 -2 -31 -8 -9 -7 -11 -6 -6 6 6 17 -10 18 -36 2
-9 -5 -8 0 4 13 13 15 23 19 31 12 6 -5 15 -7 18 -3z m62 -2 c6 0 15 4 22 8 6
4 14 3 18 -3 4 -6 10 -8 15 -5 5 3 11 1 15 -4 3 -6 -3 -15 -14 -21 -14 -7 -22
-7 -27 2 -4 7 -3 8 4 4 7 -4 12 -3 12 3 0 18 -17 21 -30 6 -17 -20 -23 -19
-39 8 -12 19 -12 21 0 11 8 -5 19 -10 24 -9z m135 -11 c7 -7 7 -11 -2 -11 -7
0 -19 -2 -27 -4 -7 -2 -15 3 -16 12 -3 17 29 19 45 3z"/>
<path d="M2950 4529 c0 -5 5 -7 10 -4 6 3 10 8 10 11 0 2 -4 4 -10 4 -5 0 -10
-5 -10 -11z"/>
<path d="M3190 4529 c0 -5 5 -7 10 -4 6 3 10 8 10 11 0 2 -4 4 -10 4 -5 0 -10
-5 -10 -11z"/>
<path d="M3430 4529 c0 -5 5 -7 10 -4 6 3 10 8 10 11 0 2 -4 4 -10 4 -5 0 -10
-5 -10 -11z"/>
<path d="M3075 4180 c-3 -5 -1 -10 4 -10 6 0 11 5 11 10 0 6 -2 10 -4 10 -3 0
-8 -4 -11 -10z"/>
<path d="M2986 4118 c3 -5 10 -6 15 -3 13 9 11 12 -6 12 -8 0 -12 -4 -9 -9z"/>
<path d="M3672 4331 c-11 -7 -11 -9 0 -14 9 -3 15 1 15 9 0 8 -1 14 -1 14 -1
0 -7 -4 -14 -9z"/>
<path d="M3712 4326 c7 -8 15 -12 17 -11 5 6 -10 25 -20 25 -5 0 -4 -6 3 -14z"/>
<path d="M4067 4169 c4 -13 8 -18 11 -10 2 7 -1 18 -6 23 -8 8 -9 4 -5 -13z"/>
<path d="M4156 4007 c3 -10 9 -15 12 -12 3 3 0 11 -7 18 -10 9 -11 8 -5 -6z"/>
<path d="M3255 3901 c-6 -11 13 -26 22 -17 4 3 1 6 -6 6 -7 0 -9 5 -6 10 3 6
4 10 1 10 -3 0 -7 -4 -11 -9z"/>
<path d="M3250 3840 c0 -5 5 -10 11 -10 5 0 7 5 4 10 -3 6 -8 10 -11 10 -2 0
-4 -4 -4 -10z"/>
<path d="M3750 3373 c5 -2 8 -9 4 -14 -3 -5 0 -9 6 -9 15 0 7 23 -8 26 -7 1
-8 0 -2 -3z"/>
<path d="M3585 3299 c-3 -4 2 -6 10 -5 21 3 28 13 10 13 -9 0 -18 -4 -20 -8z"/>
<path d="M3390 3400 c0 -5 5 -10 11 -10 5 0 7 5 4 10 -3 6 -8 10 -11 10 -2 0
-4 -4 -4 -10z"/>
<path d="M4067 3199 c7 -7 15 -10 18 -7 3 3 -2 9 -12 12 -14 6 -15 5 -6 -5z"/>
<path d="M4156 2793 c-6 -14 -5 -15 5 -6 7 7 10 15 7 18 -3 3 -9 -2 -12 -12z"/>
<path d="M3310 2899 c0 -5 5 -7 10 -4 6 3 10 8 10 11 0 2 -4 4 -10 4 -5 0 -10
-5 -10 -11z"/>
<path d="M3100 2719 c0 -5 5 -7 10 -4 6 3 10 8 10 11 0 2 -4 4 -10 4 -5 0 -10
-5 -10 -11z"/>
<path d="M3740 2528 c0 -11 5 -18 12 -16 16 6 18 35 2 35 -8 0 -14 -9 -14 -19z"/>
<path d="M2790 2446 c0 -2 7 -7 16 -10 8 -3 12 -2 9 4 -6 10 -25 14 -25 6z"/>
<path d="M2523 2067 c0 -7 9 -14 20 -14 11 -1 18 -1 16 0 -2 2 -11 8 -20 15
-12 9 -16 9 -16 -1z"/>
<path d="M2474 1978 c-4 -7 -3 -8 4 -4 7 4 12 3 12 -3 0 -5 -6 -12 -12 -14 -8
-4 -9 -6 -2 -6 6 -1 17 5 23 13 9 10 8 15 -3 19 -9 4 -18 1 -22 -5z"/>
<path d="M3546 1629 c2 -4 -2 -10 -8 -12 -13 -5 -11 -6 19 -7 4 0 8 6 9 13 1
8 -4 14 -12 14 -7 0 -11 -4 -8 -8z"/>
<path d="M2329 1578 c-10 -40 -3 -53 21 -37 11 6 12 9 2 9 -7 0 -11 4 -7 9 3
5 1 12 -5 16 -5 3 -10 5 -11 3z"/>
<path d="M3101 1413 c-1 -17 16 -25 25 -12 4 7 3 9 -4 5 -5 -3 -13 0 -15 6 -4
9 -6 10 -6 1z"/>
<path d="M2515 1320 c-3 -5 -1 -10 4 -10 6 0 11 5 11 10 0 6 -2 10 -4 10 -3 0
-8 -4 -11 -10z"/>
<path d="M2350 1316 c0 -2 9 -6 20 -9 11 -3 18 -1 14 4 -5 9 -34 13 -34 5z"/>
<path d="M2425 1300 c-3 -6 1 -7 9 -4 18 7 21 14 7 14 -6 0 -13 -4 -16 -10z"/>
<path d="M2936 1348 c3 -5 10 -6 15 -3 13 9 11 12 -6 12 -8 0 -12 -4 -9 -9z"/>
<path d="M2590 1300 c0 -5 5 -10 11 -10 5 0 7 5 4 10 -3 6 -8 10 -11 10 -2 0
-4 -4 -4 -10z"/>
<path d="M3610 4549 c0 -5 5 -7 10 -4 6 3 10 8 10 11 0 2 -4 4 -10 4 -5 0 -10
-5 -10 -11z"/>
<path d="M2520 4451 c0 -6 4 -13 10 -16 6 -3 7 1 4 9 -7 18 -14 21 -14 7z"/>
<path d="M4164 4378 c0 -16 2 -16 18 -1 10 9 18 17 18 17 0 1 -8 2 -18 2 -10
0 -18 -8 -18 -18z"/>
<path d="M4420 3966 c0 -2 8 -10 18 -17 15 -13 16 -12 3 4 -13 16 -21 21 -21
13z"/>
<path d="M4414 3922 c0 -10 8 -18 16 -18 9 0 17 6 17 13 0 7 -4 10 -9 7 -4 -3
-8 0 -8 5 0 6 -4 11 -8 11 -4 0 -8 -8 -8 -18z"/>
<path d="M4421 3873 c16 -20 18 -41 6 -60 -5 -7 -5 -17 -2 -23 14 -23 22 -7
22 45 0 48 -3 55 -20 55 -18 0 -19 -2 -6 -17z"/>
<path d="M4427 3755 c-4 -8 -2 -17 4 -20 5 -4 6 -12 2 -18 -13 -21 -12 -66 2
-61 7 3 12 25 12 60 -1 53 -9 69 -20 39z"/>
<path d="M2995 3690 c3 -5 8 -10 11 -10 2 0 4 5 4 10 0 6 -5 10 -11 10 -5 0
-7 -4 -4 -10z"/>
<path d="M4426 3622 c-2 -4 -1 -14 4 -22 5 -9 5 -19 -1 -27 -6 -7 -8 -17 -4
-23 13 -21 21 -8 22 35 1 41 -8 57 -21 37z"/>
<path d="M4427 3515 c-4 -8 -2 -17 4 -21 6 -4 6 -11 -1 -19 -7 -8 -9 -19 -5
-25 12 -19 23 0 22 40 -1 40 -10 52 -20 25z"/>
<path d="M3195 3300 c3 -5 8 -10 11 -10 2 0 4 5 4 10 0 6 -5 10 -11 10 -5 0
-7 -4 -4 -10z"/>
<path d="M3237 3263 c-12 -12 -7 -33 8 -33 17 0 19 9 7 28 -5 7 -11 9 -15 5z"/>
<path d="M4425 3081 c-3 -5 -1 -12 5 -16 7 -4 7 -12 0 -25 -7 -13 -7 -21 1
-25 6 -4 8 -13 5 -21 -3 -8 -1 -14 3 -14 5 0 9 25 9 55 -1 51 -9 68 -23 46z"/>
<path d="M4416 2858 c3 -4 11 -5 19 -1 21 7 19 12 -4 10 -11 0 -18 -5 -15 -9z"/>
<path d="M2474 2396 c-3 -9 -11 -13 -18 -9 -6 3 -8 2 -3 -2 12 -14 45 -13 43
1 -3 22 -15 28 -22 10z"/>
<path d="M2375 2239 c-4 -6 -5 -12 -2 -15 2 -3 7 2 10 11 7 17 1 20 -8 4z"/>
<path d="M903 2202 c-31 -3 -39 -14 -34 -44 0 -5 -3 -8 -9 -8 -5 0 -10 5 -10
10 0 6 -5 10 -11 10 -5 0 -7 -4 -4 -10 3 -5 1 -10 -5 -10 -7 0 -10 -33 -8 -99
2 -85 5 -100 19 -104 12 -3 16 0 12 9 -3 8 -10 11 -16 7 -6 -3 -7 -1 -3 6 4 6
11 9 16 6 4 -3 10 0 12 5 2 6 5 -24 7 -67 5 -113 5 -112 14 -106 4 2 5 14 1
26 -6 19 -5 20 8 10 8 -7 17 -10 20 -7 3 3 6 -1 5 -8 -2 -48 4 -88 13 -83 6 3
10 2 10 -4 0 -6 7 -8 15 -5 12 5 15 -2 15 -29 0 -41 12 -53 33 -33 13 13 15
12 15 -11 0 -14 6 -29 13 -34 10 -6 11 -9 1 -9 -25 0 -6 -25 23 -30 26 -4 30
-9 28 -33 -2 -22 1 -26 10 -18 18 14 39 -2 40 -32 2 -21 5 -23 20 -16 9 5 17
12 17 15 0 3 -5 2 -12 -2 -7 -5 -8 -3 -3 6 5 9 4 11 -3 6 -7 -4 -12 -2 -12 3
0 14 30 14 31 1 1 -5 2 -16 3 -22 1 -7 12 -13 24 -12 18 1 25 -6 29 -28 4 -22
9 -26 18 -18 9 8 15 8 20 0 3 -5 19 -10 36 -10 23 0 29 -4 29 -23 0 -20 6 -22
53 -25 28 -1 61 -4 72 -7 11 -2 23 -4 26 -4 4 -1 6 -11 5 -23 -1 -21 11 -25
44 -15 3 1 5 -3 5 -8 0 -6 -8 -9 -17 -9 -10 1 -15 -3 -12 -7 3 -5 10 -7 15 -4
5 4 9 1 9 -4 0 -8 7 -7 19 1 11 7 17 16 14 22 -3 5 -1 6 5 2 7 -4 16 -15 21
-24 8 -16 4 -18 -32 -18 -23 0 -45 5 -49 10 -10 14 -40 16 -35 3 3 -8 -8 -12
-33 -12 -21 0 -36 3 -34 7 3 5 -1 8 -8 8 -10 0 -9 3 2 10 9 6 19 5 29 -3 11
-9 15 -9 18 1 3 6 9 10 13 7 5 -3 12 0 16 6 4 7 3 9 -3 6 -5 -3 -10 0 -10 8 0
8 4 12 9 9 4 -3 5 2 1 11 -4 12 -8 13 -13 5 -6 -9 -9 -9 -13 1 -4 12 -7 12
-18 1 -8 -7 -9 -12 -4 -10 6 2 11 -1 13 -7 1 -5 -2 -10 -7 -10 -5 0 -12 -3
-16 -7 -4 -4 -13 -4 -20 -1 -10 3 -13 -2 -9 -22 3 -17 0 -25 -8 -24 -7 1 -43
1 -79 0 -62 -1 -67 -3 -73 -26 -4 -15 -13 -25 -24 -25 -14 0 -14 2 -3 9 24 15
21 37 -5 37 -12 0 -20 -4 -18 -8 3 -5 9 -6 14 -3 5 3 11 1 15 -5 3 -5 0 -10
-9 -10 -8 0 -16 -5 -18 -10 -2 -6 -26 -11 -53 -13 -41 -2 -51 -5 -51 -19 0
-10 4 -18 8 -18 4 0 8 5 8 11 0 6 5 9 11 7 22 -7 8 -22 -23 -25 -18 -2 -40 -6
-48 -10 -8 -3 -23 -7 -32 -8 -10 -1 -21 -5 -25 -10 -5 -4 1 -5 12 -1 11 3 27
1 35 -4 15 -10 14 -11 -17 -14 -10 -1 -29 -8 -43 -15 -23 -14 -24 -15 -5 -22
20 -9 20 -9 0 -6 -13 2 -19 9 -17 21 2 11 -1 15 -8 11 -6 -4 -10 -16 -8 -28 2
-17 -3 -23 -24 -25 -21 -3 -28 -9 -28 -26 0 -32 -11 -39 -27 -18 -8 9 -12 11
-8 5 3 -7 1 -13 -4 -13 -6 0 -11 -11 -11 -25 0 -20 -5 -25 -25 -25 -28 0 -31
-9 -12 -29 10 -11 10 -13 0 -7 -12 6 -18 -11 -14 -36 0 -5 -4 -8 -10 -8 -5 0
-7 -5 -4 -11 4 -6 1 -10 -6 -8 -30 4 -37 -2 -34 -26 1 -15 -3 -25 -10 -25 -24
0 -38 -31 -37 -86 0 -58 20 -91 34 -56 6 16 7 16 7 0 1 -17 5 -19 38 -22 7 -1
13 -6 13 -11 0 -12 -23 -14 -31 -2 -3 5 -9 2 -12 -7 -4 -9 -3 -15 1 -15 4 1 9
0 12 -1 5 -2 49 -5 143 -10 38 -2 61 -9 70 -19 11 -14 10 -14 -6 -2 -20 16
-32 9 -24 -13 5 -12 13 -13 37 -6 17 5 28 6 26 2 -2 -4 56 -7 129 -7 73 0 131
3 128 8 -2 4 0 7 6 7 5 0 12 -6 14 -12 4 -10 6 -10 6 0 1 7 5 11 9 8 5 -3 9 1
9 9 0 11 -4 12 -13 4 -8 -7 -14 -7 -19 1 -3 5 -5 10 -3 11 22 5 53 9 103 13
71 4 98 14 91 31 -6 16 8 21 56 21 37 -1 41 2 41 36 0 14 6 17 24 14 31 -6 60
4 43 14 -17 10 -3 31 15 24 8 -4 13 -10 10 -14 -3 -5 -1 -11 4 -14 10 -7 9 13
-1 29 -4 6 4 12 19 13 34 3 43 10 43 33 0 10 3 18 8 18 30 -5 44 2 39 21 -4
17 0 22 24 27 25 5 30 10 27 32 -3 22 1 26 24 25 17 0 26 5 26 15 0 61 20 95
47 84 9 -3 12 6 10 26 -2 28 4 36 28 32 7 -1 9 5 10 37 1 9 6 20 12 24 6 5 4
8 -5 8 -13 0 -13 1 0 10 13 8 12 10 -3 10 -12 0 -16 4 -11 13 4 6 3 8 -1 4
-11 -10 -15 -37 -6 -37 4 0 8 -7 8 -15 0 -8 -5 -11 -11 -8 -6 4 -5 0 2 -9 10
-13 10 -17 -4 -22 -23 -9 -26 -8 -17 7 11 17 11 59 1 80 -6 12 -5 23 3 33 10
12 6 14 -25 14 -24 0 -36 4 -35 13 4 35 -1 40 -26 23 -14 -9 -25 -12 -25 -6 0
5 5 10 10 10 6 0 10 4 10 9 0 5 -16 7 -35 5 -24 -2 -33 1 -29 8 5 7 2 8 -6 3
-8 -5 -34 -9 -59 -11 -31 -1 -39 1 -28 7 9 6 14 17 11 27 -5 13 -4 14 4 3 6
-8 12 -10 16 -3 7 12 46 12 46 0 0 -4 -5 -8 -12 -8 -6 0 -9 -2 -6 -5 8 -8 39
6 33 15 -3 5 27 8 65 8 39 0 73 2 77 5 3 4 5 18 5 32 0 21 4 24 25 20 14 -2
23 -1 19 2 -3 3 -1 12 6 20 15 18 4 27 -19 14 -11 -6 -13 -11 -5 -11 7 0 10
-5 7 -11 -15 -23 -21 5 -29 133 -2 31 -7 61 -11 67 -3 6 -1 11 6 11 8 0 5 8
-7 19 -10 10 -23 18 -29 17 -9 -1 -11 6 -13 62 -2 28 -6 32 -28 32 -24 0 -25
2 -13 17 12 15 12 16 -1 8 -13 -8 -13 -7 0 10 9 11 10 16 3 11 -9 -5 -13 2
-13 23 0 33 -8 38 -29 19 -11 -10 -13 -10 -7 0 4 6 3 12 -3 12 -5 0 -11 12
-13 28 -2 21 -8 27 -25 26 -18 -1 -23 4 -23 25 0 20 -5 27 -22 28 -22 2 -40
21 -32 34 5 8 -52 30 -59 22 -3 -2 -15 9 -27 25 -15 20 -28 28 -41 25 -10 -3
-20 0 -20 6 -1 6 -2 17 -3 24 0 6 -12 13 -26 14 -80 5 -89 7 -78 21 18 21 -2
31 -65 33 -36 2 -56 6 -54 13 3 6 10 10 16 9 18 -4 13 5 -9 17 -15 8 -18 8
-14 -3 4 -11 -2 -13 -23 -9 -25 5 -26 6 -8 14 16 6 14 7 -7 3 -15 -3 -30 0
-33 5 -4 6 -11 7 -17 3 -7 -3 -39 -5 -72 -4 -123 5 -162 6 -193 3z m284 -44
c-3 -8 -6 -5 -6 6 -1 11 2 17 5 13 3 -3 4 -12 1 -19z m63 2 c0 -5 -9 -9 -20
-7 -30 5 -32 12 -5 15 14 1 25 -3 25 -8z m-84 -169 c13 -1 15 -31 2 -31 -5 0
-11 7 -14 15 -9 22 -19 18 -21 -7 -2 -18 0 -20 7 -8 7 11 10 12 10 2 0 -7 8
-12 18 -10 9 1 23 -1 30 -5 8 -6 12 -1 13 15 1 17 3 18 6 6 4 -17 13 -20 60
-21 12 0 20 -4 17 -8 -3 -5 0 -9 5 -9 6 0 11 -5 11 -11 0 -6 -7 -8 -17 -4 -14
5 -15 3 -6 -6 14 -14 36 -2 29 17 -3 8 -1 14 4 14 6 0 10 -11 10 -23 0 -21 4
-24 39 -23 22 1 39 -1 39 -4 -1 -18 4 -23 12 -10 8 13 10 12 10 -3 0 -14 -5
-16 -27 -11 -25 7 -27 6 -15 -9 8 -9 20 -13 29 -10 8 3 19 0 24 -8 6 -10 9
-11 9 -1 0 10 4 10 19 0 16 -10 18 -15 8 -27 -9 -12 -9 -13 1 -7 6 4 12 2 12
-3 0 -6 11 -11 24 -11 20 0 24 -4 21 -25 -1 -14 3 -26 9 -26 6 -1 18 -2 26 -3
8 0 16 -11 18 -23 1 -13 3 -33 5 -45 1 -12 10 -22 20 -24 17 -2 17 -1 2 22
-11 17 -12 23 -3 22 15 -4 26 -31 27 -74 1 -28 31 -73 31 -46 0 6 -6 13 -12
15 -8 4 -9 6 -2 6 6 1 17 -6 24 -14 10 -12 10 -15 -1 -15 -12 0 -12 -2 0 -9
14 -9 11 -10 -54 -11 -47 -1 -114 5 -113 10 0 3 0 14 -1 25 -1 17 -3 18 -11 5
-5 -8 -10 -10 -10 -4 0 6 -6 11 -12 12 -7 0 -30 2 -50 3 -21 1 -39 6 -39 11
-1 4 -2 13 -3 20 0 7 -15 15 -32 18 -40 9 -54 18 -54 36 0 8 -4 12 -10 9 -5
-3 -10 -2 -10 3 0 5 -11 8 -25 7 -14 -2 -25 1 -25 7 0 6 6 8 13 5 7 -3 13 3
13 14 0 14 -3 16 -15 6 -11 -9 -13 -9 -8 0 4 6 2 15 -4 18 -5 4 -8 13 -5 21 3
7 0 16 -7 20 -7 4 -9 4 -5 -1 4 -4 0 -14 -10 -22 -9 -8 -11 -12 -4 -8 6 3 12
1 12 -5 0 -19 -23 -5 -26 16 -2 10 -5 30 -7 44 -2 14 -8 25 -13 25 -20 1 -40
21 -39 40 0 12 -7 20 -17 20 -23 0 -29 8 -32 47 -5 53 4 58 90 49z m-3 -165
c3 3 4 -2 2 -13 -2 -10 -4 -20 -4 -22 -2 -10 -25 20 -27 34 -2 12 1 13 10 6 7
-6 15 -8 19 -5z m612 -15 c-3 -6 -14 -10 -23 -10 -15 1 -15 2 1 6 9 2 17 9 17
15 0 6 3 9 6 5 3 -3 3 -10 -1 -16z m-481 -157 c3 -8 2 -12 -4 -9 -6 3 -10 10
-10 16 0 14 7 11 14 -7z m-224 -34 c0 -5 -2 -10 -4 -10 -3 0 -8 5 -11 10 -3 6
-1 10 4 10 6 0 11 -4 11 -10z m794 2 c3 -5 -1 -9 -9 -9 -8 0 -12 4 -9 9 3 4 7
8 9 8 2 0 6 -4 9 -8z m-404 -286 c0 -2 -6 -9 -14 -15 -11 -9 -16 -9 -22 0 -4
7 -3 9 4 5 6 -3 13 -2 17 4 6 10 15 14 15 6z m181 -13 c-10 -4 -11 -7 -1 -13
8 -5 4 -8 -12 -7 -31 2 -27 22 5 24 12 0 16 -1 8 -4z m193 -78 c-4 -8 -11 -12
-16 -9 -6 4 -5 10 3 15 19 12 19 11 13 -6z m-339 -135 c2 -4 -2 -13 -10 -20
-10 -9 -15 -9 -15 -1 0 6 -3 10 -7 10 -5 -1 -15 -1 -23 0 -11 1 -12 3 -3 9 17
11 52 12 58 2z m102 -3 c4 -5 -1 -5 -12 -1 -18 7 -19 6 -5 -11 14 -18 14 -18
-10 -2 -23 15 -27 15 -50 -4 -21 -17 -22 -19 -3 -10 28 14 36 14 27 -1 -5 -10
-4 -10 6 -1 9 9 21 7 48 -9 28 -15 33 -16 23 -4 -8 9 -11 20 -7 23 9 9 26 -17
26 -39 0 -21 -20 -23 -40 -5 -12 10 -12 9 -1 -5 13 -18 6 -24 -23 -19 -5 1 -3
-5 4 -14 15 -18 7 -30 -23 -30 -17 0 -23 -7 -25 -27 -3 -26 -22 -41 -22 -17 0
6 -7 4 -15 -5 -8 -8 -24 -13 -35 -11 -11 2 -18 0 -15 -6 4 -5 -2 -10 -12 -10
-17 -1 -17 -2 0 -6 26 -7 10 -23 -23 -23 -26 0 -46 -22 -36 -39 3 -4 -7 -8
-22 -9 -119 -5 -123 -6 -118 -25 4 -15 2 -16 -10 -6 -7 6 -11 15 -8 20 3 5 -5
5 -17 0 -25 -9 -38 -31 -19 -31 6 0 9 4 6 8 -3 5 1 9 9 9 8 0 16 -5 18 -11 3
-8 -18 -13 -60 -14 -52 -3 -63 -1 -57 10 6 10 4 10 -7 2 -8 -6 -32 -11 -54
-12 -30 -2 -36 0 -25 8 8 5 10 10 4 10 -5 0 -15 -5 -22 -12 -6 -6 -15 -8 -19
-4 -4 4 -1 11 7 16 8 6 10 10 4 10 -12 0 -12 29 1 49 5 10 4 12 -3 7 -7 -4
-12 -2 -12 3 0 6 14 11 30 11 19 0 30 5 29 13 -4 29 2 37 27 37 14 0 23 4 19
10 -3 6 -2 10 4 10 6 0 8 7 5 15 -7 18 17 20 35 3 10 -11 11 -10 6 3 -5 13 0
16 22 15 17 -1 27 4 26 12 -2 6 3 12 10 12 8 0 7 4 -3 10 -11 7 -5 10 23 10
28 0 36 3 31 13 -5 8 -2 8 9 -2 15 -12 17 -11 18 10 0 22 1 23 9 4 8 -19 9
-19 9 3 1 12 4 22 9 23 4 0 34 2 67 3 33 1 66 5 74 10 9 6 12 5 8 0 -8 -13 33
-9 66 6 17 8 23 16 16 20 -6 4 7 7 30 6 22 -1 43 -5 48 -9z m-437 -103 c0 -8
-19 -13 -24 -6 -3 5 1 9 9 9 8 0 15 -2 15 -3z m664 -43 c3 -5 -1 -11 -9 -14
-9 -4 -12 -1 -8 9 6 16 10 17 17 5z m-351 -66 c4 -8 1 -17 -5 -21 -7 -4 -8 -3
-4 4 4 7 2 12 -4 12 -6 0 -8 5 -5 10 8 14 12 13 18 -5z m-762 -98 c-7 -7 -7
-16 2 -26 10 -14 10 -14 -4 -4 -9 7 -18 10 -22 7 -3 -3 -4 2 -2 13 4 22 2 20
20 20 11 0 12 -4 6 -10z m704 -156 c-3 -6 -11 -11 -16 -11 -5 0 -4 6 3 14 14
16 24 13 13 -3z m-405 -37 c0 -8 -19 -13 -24 -6 -3 5 1 9 9 9 8 0 15 -2 15 -3z"/>
<path d="M1093 1983 c4 -3 1 -13 -6 -22 -11 -14 -10 -14 5 -2 16 12 16 31 1
31 -4 0 -3 -3 0 -7z"/>
<path d="M1096 1927 c3 -10 9 -15 12 -12 3 3 0 11 -7 18 -10 9 -11 8 -5 -6z"/>
<path d="M1310 1675 c0 -8 5 -15 10 -15 6 0 10 7 10 15 0 8 -4 15 -10 15 -5 0
-10 -7 -10 -15z"/>
<path d="M1407 1622 c5 -11 3 -13 -7 -7 -9 6 -11 4 -5 -5 6 -10 11 -10 20 3 7
9 14 16 16 14 2 -1 3 0 1 2 -1 3 -9 6 -17 7 -9 1 -11 -4 -8 -14z"/>
<path d="M1524 1579 c-3 -6 -1 -16 4 -21 8 -8 11 -5 9 11 -1 24 -3 25 -13 10z"/>
<path d="M1555 1581 c-3 -5 -2 -12 3 -15 5 -3 9 1 9 9 0 17 -3 19 -12 6z"/>
<path d="M1337 856 c-4 -9 -3 -15 2 -11 5 3 11 0 13 -7 3 -7 7 -5 11 6 4 9 3
15 -2 11 -5 -3 -11 0 -13 7 -3 7 -7 5 -11 -6z"/>
<path d="M998 813 c7 -3 16 -2 19 1 4 3 -2 6 -13 5 -11 0 -14 -3 -6 -6z"/>
<path d="M1550 2041 c0 -13 28 -33 33 -24 3 5 3 13 -1 18 -9 13 -32 17 -32 6z"/>
<path d="M2264 2021 c20 -22 26 -25 26 -13 0 4 -10 13 -22 21 -23 14 -23 14
-4 -8z"/>
<path d="M830 1919 c0 -5 5 -7 10 -4 6 3 10 8 10 11 0 2 -4 4 -10 4 -5 0 -10
-5 -10 -11z"/>
<path d="M2210 1906 c0 -2 7 -9 15 -16 13 -11 14 -10 9 4 -5 14 -24 23 -24 12z"/>
<path d="M4130 1900 c0 -5 5 -10 10 -10 6 0 10 5 10 10 0 6 -4 10 -10 10 -5 0
-10 -4 -10 -10z"/>
<path d="M1914 1523 c2 -10 -2 -24 -8 -32 -8 -12 -8 -13 2 -7 9 6 11 0 7 -24
-4 -23 -2 -31 7 -28 7 3 12 16 10 29 -1 13 -4 34 -5 46 -2 12 -6 25 -9 28 -4
4 -5 -1 -4 -12z"/>
<path d="M1681 1307 c-8 -10 -7 -14 2 -14 8 0 14 6 14 14 0 7 -1 13 -2 13 -2
0 -8 -6 -14 -13z"/>
<path d="M1760 1316 c0 -2 7 -7 16 -10 8 -3 12 -2 9 4 -6 10 -25 14 -25 6z"/>
<path d="M1335 1300 c3 -5 8 -10 11 -10 2 0 4 5 4 10 0 6 -5 10 -11 10 -5 0
-7 -4 -4 -10z"/>
<path d="M1560 1300 c-9 -6 -10 -10 -3 -10 6 0 15 5 18 10 8 12 4 12 -15 0z"/>
<path d="M2950 1140 c0 -5 5 -10 11 -10 5 0 7 5 4 10 -3 6 -8 10 -11 10 -2 0
-4 -4 -4 -10z"/>
<path d="M2555 1099 c-4 -6 -5 -12 -2 -15 2 -3 7 2 10 11 7 17 1 20 -8 4z"/>
<path d="M2638 1093 c7 -3 16 -2 19 1 4 3 -2 6 -13 5 -11 0 -14 -3 -6 -6z"/>
<path d="M719 908 c14 -19 32 -15 30 5 0 8 -2 8 -6 -1 -4 -10 -8 -10 -21 0
-15 12 -16 11 -3 -4z"/>
<path d="M875 590 c-4 -6 -3 -16 3 -22 6 -6 12 -6 17 2 4 6 3 16 -3 22 -6 6
-12 6 -17 -2z"/>
</g>
</svg>
